<svg width="40" height="39" viewBox="0 0 40 39" fill="none" xmlns="http://www.w3.org/2000/svg">
<g clip-path="url(#clip0_6035_335)">
<path d="M9.99273 39C9.91932 39 9.84591 38.9848 9.77815 38.9545C9.58428 38.8674 9.45818 38.6761 9.45818 38.462V30.1275H0.534552C0.239042 30.1275 0 29.8869 0 29.5895V0.537957C0 0.240565 0.239042 0 0.534552 0H38.6966C38.9921 0 39.2312 0.240565 39.2312 0.537957V29.5895C39.2312 29.8869 38.9921 30.1275 38.6966 30.1275H19.8236L10.3541 38.8598C10.2525 38.9526 10.1245 39.0019 9.99273 39.0019V39ZM1.0691 29.0516H9.99273C10.2882 29.0516 10.5273 29.2921 10.5273 29.5895V37.2403L19.2533 29.1936C19.3511 29.1027 19.481 29.0516 19.6147 29.0516H38.1602V1.07591H1.0691V29.0516Z" fill="#FFEC5C"/>
</g>
<defs>
<clipPath id="clip0_6035_335">
<rect width="39.2312" height="39" fill="white"/>
</clipPath>
</defs>
</svg>
