<svg width="57" height="57" viewBox="0 0 57 57" fill="none" xmlns="http://www.w3.org/2000/svg">
<g clip-path="url(#clip0_6035_427)">
<path d="M28.496 56.992C44.2339 56.992 56.992 44.2339 56.992 28.496C56.992 12.7581 44.2339 0 28.496 0C12.7581 0 0 12.7581 0 28.496C0 44.2339 12.7581 56.992 28.496 56.992Z" fill="#FFEC5C"/>
<path d="M12.3202 14.276L25.5301 29.2654C26.2836 30.1151 27.3658 30.6041 28.496 30.6041C29.6262 30.6041 30.7163 30.1151 31.4618 29.2654L44.4473 14.5325C44.5515 14.4123 44.6798 14.3161 44.816 14.2439C44.263 14.0035 43.6618 13.8672 43.0205 13.8672H13.9714C13.3622 13.8672 12.7771 13.9874 12.248 14.2119C12.2721 14.2359 12.2961 14.2519 12.3122 14.276H12.3202Z" fill="#231F20"/>
<path d="M46.82 15.9673C46.7639 16.1196 46.6838 16.2639 46.5635 16.3921L33.578 31.1251C32.2955 32.5839 30.4358 33.4176 28.496 33.4176C26.5562 33.4176 24.6966 32.5839 23.414 31.1251L10.2041 16.1356C10.2041 16.1356 10.156 16.0715 10.1319 16.0394C9.72314 16.7128 9.48267 17.5063 9.48267 18.348V38.6438C9.48267 41.1207 11.4946 43.1327 13.9715 43.1327H43.0206C45.4974 43.1327 47.5094 41.1207 47.5094 38.6438V18.348C47.5094 17.4742 47.2529 16.6566 46.82 15.9673Z" fill="#231F20"/>
</g>
<defs>
<clipPath id="clip0_6035_427">
<rect width="57" height="57" fill="white"/>
</clipPath>
</defs>
</svg>
