<svg width="57" height="57" viewBox="0 0 57 57" fill="none" xmlns="http://www.w3.org/2000/svg">
<path d="M28.496 56.992C44.2339 56.992 56.992 44.2339 56.992 28.496C56.992 12.7581 44.2339 0 28.496 0C12.7581 0 0 12.7581 0 28.496C0 44.2339 12.7581 56.992 28.496 56.992Z" fill="#231F20"/>
<path d="M56.99 28.5997C56.99 12.8046 44.2322 0 28.495 0C12.7578 0 0 12.8046 0 28.5997C0 42.0118 9.20047 53.2663 21.6117 56.3574V37.3397H15.7361V28.5997H21.6117V24.8337C21.6117 15.0995 26.0011 10.5876 35.523 10.5876C37.3285 10.5876 40.4435 10.9434 41.7178 11.298V19.2201C41.0453 19.1492 39.877 19.1137 38.4261 19.1137C33.754 19.1137 31.9486 20.8903 31.9486 25.5086V28.5997H41.2562L39.6571 37.3397H31.9486V56.99C46.0559 55.2797 56.99 43.2221 56.99 28.5997Z" fill="#FFEC5C"/>
</svg>
