<svg width="42" height="46" viewBox="0 0 42 46" fill="none" xmlns="http://www.w3.org/2000/svg">
<g clip-path="url(#clip0_6035_341)">
<path d="M28.0745 36.2925V44.3339C28.0745 44.739 27.7509 45.0658 27.3498 45.0658H12.6329C12.2341 45.0658 11.9082 44.739 11.9082 44.3339V36.2925C11.9082 35.8875 12.2318 35.5607 12.6329 35.5607H27.3498C27.7486 35.5607 28.0745 35.8875 28.0745 36.2925ZM26.6274 43.6021V37.0221H13.3576V43.6021H26.6274Z" fill="#FFEC5C"/>
<path d="M41.0686 13.0176C41.0686 13.1419 41.0366 13.2639 40.9751 13.3744L28.038 36.647C27.842 36.9991 27.4022 37.1234 27.0512 36.9278C26.7026 36.7299 26.5795 36.2834 26.7755 35.9335L39.1087 13.7495H2.51242L13.3393 35.9704C13.5148 36.3294 13.3689 36.7713 13.0089 36.9485C12.6511 37.1257 12.2158 36.9784 12.0404 36.6148L0.698445 13.3398C0.58906 13.1143 0.600454 12.845 0.732628 12.631C0.864802 12.417 1.09725 12.2858 1.34792 12.2858H40.3416C40.5991 12.2858 40.8361 12.4239 40.966 12.6471C41.0321 12.7599 41.0663 12.8888 41.0663 13.0153L41.0686 13.0176Z" fill="#FFEC5C"/>
<path d="M20.8458 10.7852C20.5314 10.7852 20.2761 10.6103 20.2761 10.3939V1.30306C20.2761 1.08672 20.5314 0.911804 20.8458 0.911804C21.1603 0.911804 21.4156 1.08672 21.4156 1.30306V10.3939C21.4156 10.6103 21.1603 10.7852 20.8458 10.7852Z" fill="#FFEC5C"/>
<path d="M32.3245 13.5539C32.01 13.5539 31.7548 13.3881 31.7548 13.1833V4.58496C31.7548 4.38012 32.01 4.21442 32.3245 4.21442C32.639 4.21442 32.8942 4.38012 32.8942 4.58496V13.1833C32.8942 13.3881 32.639 13.5539 32.3245 13.5539Z" fill="#FFEC5C"/>
<path d="M9.77968 13.5539C9.46519 13.5539 9.20996 13.425 9.20996 13.2662V6.58035C9.20996 6.42155 9.46519 6.29266 9.77968 6.29266C10.0942 6.29266 10.3494 6.42155 10.3494 6.58035V13.2662C10.3494 13.425 10.0942 13.5539 9.77968 13.5539Z" fill="#FFEC5C"/>
</g>
<defs>
<clipPath id="clip0_6035_341">
<rect width="40.443" height="44.1517" fill="white" transform="translate(0.625488 0.911804)"/>
</clipPath>
</defs>
</svg>
