<svg width="59" height="58" viewBox="0 0 59 58" fill="none" xmlns="http://www.w3.org/2000/svg">
<g clip-path="url(#clip0_6035_421)">
<path d="M29.5 58C45.7924 58 59 45.0163 59 29C59 12.9837 45.7924 0 29.5 0C13.2076 0 0 12.9837 0 29C0 45.0163 13.2076 58 29.5 58Z" fill="#FFEC5C"/>
<path d="M38.6578 18.0295C37.541 18.0295 36.631 18.9241 36.631 20.022C36.631 21.1198 37.541 22.0144 38.6578 22.0144C39.7746 22.0144 40.6845 21.1198 40.6845 20.022C40.6845 18.9241 39.7746 18.0295 38.6578 18.0295Z" fill="#231F20"/>
<path d="M29.6406 20.583C24.9418 20.583 21.1199 24.3402 21.1199 28.9593C21.1199 33.5785 24.9418 37.3357 29.6406 37.3357C34.3394 37.3357 38.1614 33.5785 38.1614 28.9593C38.1614 24.3402 34.3394 20.583 29.6406 20.583ZM29.6406 34.3186C26.6294 34.3186 24.1807 31.9114 24.1807 28.9512C24.1807 25.991 26.6294 23.5838 29.6406 23.5838C32.6518 23.5838 35.1005 25.991 35.1005 28.9512C35.1005 31.9114 32.6518 34.3186 29.6406 34.3186Z" fill="#231F20"/>
<path d="M36.3993 45.956H22.5924C16.8678 45.956 12.202 41.3775 12.202 35.7417V22.1688C12.202 16.5331 16.8595 11.9546 22.5924 11.9546H36.3993C42.1322 11.9546 46.7897 16.5331 46.7897 22.1688V35.7417C46.7897 41.3693 42.1322 45.956 36.3993 45.956ZM22.5924 15.1587C18.6546 15.1587 15.4531 18.306 15.4531 22.177V35.7499C15.4531 39.6209 18.6546 42.7681 22.5924 42.7681H36.3993C40.3371 42.7681 43.5385 39.6209 43.5385 35.7499V22.177C43.5385 18.306 40.3371 15.1587 36.3993 15.1587H22.5924Z" fill="#231F20"/>
</g>
<defs>
<clipPath id="clip0_6035_421">
<rect width="59" height="58" fill="white"/>
</clipPath>
</defs>
</svg>
