<svg width="59" height="59" viewBox="0 0 59 59" fill="none" xmlns="http://www.w3.org/2000/svg">
<g clip-path="url(#clip0_6035_414)">
<path d="M36.3418 21.4859C33.5968 21.4859 31.7559 22.9819 31.008 24.4121H30.9341V21.9298H25.5264V40.0621H31.156V31.0946C31.156 28.7274 31.608 26.4423 34.542 26.4423C37.4759 26.4423 37.4677 29.1383 37.4677 31.2425V40.0621H43.0973V30.1165C43.0973 25.234 42.0454 21.4859 36.3418 21.4859ZM19.1735 12.9211C17.3655 12.9211 15.9026 14.3842 15.9026 16.1925C15.9026 18.0008 17.3655 19.4557 19.1735 19.4557C20.9816 19.4557 22.4362 17.9926 22.4362 16.1925C22.4362 14.3924 20.9816 12.9211 19.1735 12.9211ZM16.3546 21.9298V40.0621H21.9924V21.9298H16.3546Z" fill="#231F20"/>
<path d="M29.4959 0C13.2316 0 0 13.2335 0 29.5C0 45.7665 13.2316 59 29.4959 59C45.7601 59 59 45.7665 59 29.5C59 13.2335 45.7601 0 29.4959 0ZM43.0974 40.0621H37.4678V31.2425C37.4678 29.1383 37.4267 26.4423 34.542 26.4423C31.6573 26.4423 31.156 28.7274 31.156 31.0946V40.0621H25.5264V21.9298H30.9341V24.4121H31.0081C31.756 22.9819 33.5969 21.4859 36.3418 21.4859C42.0454 21.4859 43.0974 25.234 43.0974 30.1165V40.0621ZM19.1736 12.9211C20.9816 12.9211 22.4363 14.3842 22.4363 16.1925C22.4363 18.0008 20.9816 19.4557 19.1736 19.4557C17.3655 19.4557 15.9026 17.9926 15.9026 16.1925C15.9026 14.3924 17.3655 12.9211 19.1736 12.9211ZM21.9925 21.9298V40.0621H16.3546V21.9298H21.9925Z" fill="#FFEC5C"/>
</g>
<defs>
<clipPath id="clip0_6035_414">
<rect width="59" height="59" fill="white"/>
</clipPath>
</defs>
</svg>
