<svg width="22" height="38" viewBox="0 0 22 38" fill="none" xmlns="http://www.w3.org/2000/svg">
<g clip-path="url(#clip0_6035_350)">
<path d="M21.3315 38H0.528656C0.235558 38 0 37.7604 0 37.4663V0.533677C0 0.23961 0.237356 0 0.528656 0H21.3315C21.6246 0 21.8601 0.23961 21.8601 0.533677V37.4645C21.8601 37.7604 21.6228 37.9982 21.3315 37.9982V38ZM1.05731 36.9308H20.8028V1.06735H1.05731V36.9308Z" fill="#FFEC5C"/>
<path d="M21.051 31.5704H0.809174C0.516075 31.5704 0.280518 31.3308 0.280518 31.0367C0.280518 30.7427 0.517874 30.5031 0.809174 30.5031H21.051C21.3441 30.5031 21.5796 30.7427 21.5796 31.0367C21.5796 31.3308 21.3423 31.5704 21.051 31.5704Z" fill="#FFEC5C"/>
<path d="M13.0905 34.7744H8.77133C8.47823 34.7744 8.24268 34.5348 8.24268 34.2407C8.24268 33.9466 8.48003 33.707 8.77133 33.707H13.0905C13.3836 33.707 13.6191 33.9466 13.6191 34.2407C13.6191 34.5348 13.3818 34.7744 13.0905 34.7744Z" fill="#FFEC5C"/>
</g>
<defs>
<clipPath id="clip0_6035_350">
<rect width="21.8601" height="38" fill="white"/>
</clipPath>
</defs>
</svg>
