<svg width="41" height="39" viewBox="0 0 41 39" fill="none" xmlns="http://www.w3.org/2000/svg">
<path d="M8.52486 16.7267L15.1302 23.2936L38.2488 0.311044C38.9159 -0.352075 40.0542 0.118081 40.0542 1.05533V13.9655C40.0542 14.2442 39.9433 14.5122 39.7446 14.7098L15.6185 38.6923C15.1995 39.1089 14.5202 39.1028 14.1089 38.6786L0.297465 24.4575C-0.112287 24.0348 -0.0953422 23.361 0.335976 22.9597L7.0553 16.7037C7.47121 16.3163 8.12281 16.327 8.5264 16.7282L8.52486 16.7267ZM0.78732 23.9291L14.8575 37.9174L38.9651 13.9517V1.13037L15.8788 24.0823C15.466 24.4927 14.7959 24.4927 14.3831 24.0823L7.75157 17.4894C4.73234 20.1158 1.59604 22.9812 0.78886 23.9291H0.78732Z" fill="#FFEC5C"/>
</svg>
