<svg width="59" height="58" viewBox="0 0 59 58" fill="none" xmlns="http://www.w3.org/2000/svg">
<g clip-path="url(#clip0_6035_417)">
<path d="M58.6136 33.6715C61.2381 17.8644 50.3306 2.95871 34.251 0.378699C18.1713 -2.20131 3.00864 8.52135 0.384149 24.3284C-2.24035 40.1355 8.66719 55.0412 24.7468 57.6212C40.8264 60.2012 55.9891 49.4786 58.6136 33.6715Z" fill="#FFEC5C"/>
<path d="M13.5588 45.4111L16.0158 36.3923C14.626 33.9201 13.8897 31.1551 13.8897 28.3494C13.8897 19.168 21.4922 11.6943 30.8319 11.6943C40.1717 11.6943 47.7742 19.168 47.7742 28.3494C47.7742 37.5308 40.1717 45.0045 30.8319 45.0045C28.0275 45.0045 25.2562 44.3051 22.7745 42.9877L13.5505 45.4192L13.5588 45.4111ZM23.246 39.5965L23.8251 39.938C25.9594 41.1904 28.3833 41.8491 30.8402 41.8491C38.4179 41.8491 44.581 35.7905 44.581 28.3413C44.581 20.892 38.4179 14.8334 30.8402 14.8334C23.2625 14.8334 17.0995 20.892 17.0995 28.3413C17.0995 30.7973 17.7944 33.2207 19.1097 35.3432L19.4654 35.9206L18.0922 40.9546L23.246 39.5965Z" fill="#231F20"/>
<path fill-rule="evenodd" clip-rule="evenodd" d="M37.1439 30.6589C36.449 30.2523 35.539 29.7887 34.72 30.1222C34.0913 30.3743 33.6859 31.342 33.2806 31.8381C33.0738 32.0902 32.8173 32.1309 32.5029 32.0007C30.137 31.0736 28.3253 29.5204 27.0182 27.3816C26.7949 27.0481 26.8362 26.7879 27.101 26.4789C27.498 26.0235 27.9944 25.503 28.0937 24.8849C28.2012 24.2669 27.9034 23.5512 27.6469 23.0063C27.316 22.307 26.9438 21.3067 26.2323 20.9082C25.5788 20.5422 24.7102 20.7455 24.1311 21.2172C23.1218 22.0223 22.6338 23.291 22.6503 24.5434C22.6503 24.9012 22.6999 25.2509 22.7827 25.6006C22.9895 26.4301 23.3783 27.2026 23.8085 27.9346C24.1394 28.4876 24.4951 29.0243 24.8839 29.5448C26.1496 31.2363 27.7214 32.7001 29.5496 33.798C30.4596 34.3429 31.4441 34.8308 32.4616 35.1561C33.6032 35.5302 34.6125 35.9124 35.8451 35.6847C37.1356 35.4407 38.4013 34.66 38.9142 33.4402C39.0631 33.0823 39.1376 32.6757 39.0548 32.2935C38.8811 31.5047 37.7891 31.033 37.1439 30.6508V30.6589Z" fill="#231F20"/>
</g>
<defs>
<clipPath id="clip0_6035_417">
<rect width="59" height="58" fill="white"/>
</clipPath>
</defs>
</svg>
