<svg width="41" height="41" viewBox="0 0 41 41" fill="none" xmlns="http://www.w3.org/2000/svg">
<g clip-path="url(#clip0_6035_331)">
<path d="M31.401 20.2881L40.3389 11.3828C40.9197 10.8041 40.9197 9.86567 40.3389 9.28554L31.8148 0.794017C31.234 0.215308 30.2921 0.215308 29.7099 0.794017L20.909 9.56281L12.2766 0.960378C11.7157 0.401576 10.8138 0.378825 10.2258 0.90919L1.3836 8.87888C0.712866 9.48319 0.678615 10.5212 1.30653 11.1695L9.85194 19.9696C9.94471 20.0649 9.94328 20.217 9.84909 20.3109L1.82314 28.3076C1.24232 28.8863 1.24232 29.8247 1.82314 30.4049L10.3457 38.8964C10.9265 39.4751 11.8684 39.4751 12.4507 38.8964L19.7888 31.585C20.3696 31.0063 21.3115 31.0063 21.8937 31.585L29.9168 39.5789C30.4976 40.1576 31.4395 40.1576 32.0218 39.5789L40.3389 31.2921C40.9197 30.7134 40.9197 29.775 40.3389 29.1948L31.401 20.2895V20.2881ZM39.6695 30.4134L31.1413 38.9106C31.0456 39.0059 30.8915 39.0059 30.7959 38.9106L21.8937 30.0409C21.3129 29.4622 20.371 29.4622 19.7888 30.0409L11.5716 38.2295C11.476 38.3248 11.3218 38.3248 11.2262 38.2295L2.48246 29.4366L11.2847 20.7005C11.6044 20.3749 11.6058 19.8545 11.2847 19.5274L2.00153 10.4188C1.90591 10.3207 1.91019 10.1643 2.01009 10.0718L11.0764 1.64004C11.172 1.55046 11.3218 1.55331 11.416 1.64573L19.8587 10.0562C20.4395 10.6349 21.3814 10.6349 21.9636 10.0562L30.7631 1.28883L39.8422 10.3349L30.9044 19.2402C30.3235 19.8189 30.3235 20.7574 30.9044 21.3375L39.6695 30.0707C39.7652 30.166 39.7652 30.3196 39.6695 30.4148V30.4134Z" fill="#FFEC5C"/>
</g>
<defs>
<clipPath id="clip0_6035_331">
<rect width="39.9171" height="39.6508" fill="white" transform="translate(0.856934 0.360535)"/>
</clipPath>
</defs>
</svg>
